<svg xmlns="http://www.w3.org/2000/svg" xmlns:xlink="http://www.w3.org/1999/xlink" x="0px" y="0px" width="48px" height="48px" viewBox="0 0 48 48"><g  transform="translate(0, 0)">
<line data-cap="butt" data-color="color-2" fill="none" stroke="#ffffff" stroke-width="4" stroke-miterlimit="10" x1="24" y1="28" x2="31" y2="21" stroke-linejoin="miter" stroke-linecap="butt"/>
<line fill="none" stroke="#ffffff" stroke-width="4" stroke-linecap="square" stroke-miterlimit="10" x1="42" y1="28" x2="6" y2="28" stroke-linejoin="miter"/>
<line fill="none" stroke="#ffffff" stroke-width="4" stroke-linecap="square" stroke-miterlimit="10" x1="6" y1="12" x2="42" y2="12" stroke-linejoin="miter"/>
<polyline data-color="color-2" fill="none" stroke="#ffffff" stroke-width="4" stroke-linecap="square" stroke-miterlimit="10" points="&#10;&#9;15,40 15,46 8,46 8,40 " stroke-linejoin="miter"/>
<polyline data-color="color-2" fill="none" stroke="#ffffff" stroke-width="4" stroke-linecap="square" stroke-miterlimit="10" points="&#10;&#9;40,40 40,46 33,46 33,40 " stroke-linejoin="miter"/>
<path fill="none" stroke="#ffffff" stroke-width="4" stroke-linecap="square" stroke-miterlimit="10" d="M42,40H6V6c0-2.2,1.8-4,4-4&#10;&#9;h28c2.2,0,4,1.8,4,4V40z" stroke-linejoin="miter"/>
<line data-color="color-2" fill="none" stroke="#ffffff" stroke-width="4" stroke-linecap="square" stroke-miterlimit="10" x1="22" y1="7" x2="26" y2="7" stroke-linejoin="miter"/>
<line data-color="color-2" fill="none" stroke="#ffffff" stroke-width="4" stroke-linecap="square" stroke-miterlimit="10" x1="11" y1="34" x2="15" y2="34" stroke-linejoin="miter"/>
<line data-color="color-2" fill="none" stroke="#ffffff" stroke-width="4" stroke-linecap="square" stroke-miterlimit="10" x1="33" y1="34" x2="37" y2="34" stroke-linejoin="miter"/>
</g></svg>
