<?xml version="1.0" encoding="iso-8859-1"?>
<!-- Generator: Adobe Illustrator 19.1.0, SVG Export Plug-In . SVG Version: 6.00 Build 0)  -->
<svg version="1.1" id="Capa_1" xmlns="http://www.w3.org/2000/svg" xmlns:xlink="http://www.w3.org/1999/xlink" x="0px" y="0px"
	 viewBox="0 0 297.185 297.185" style="enable-background:new 0 0 297.185 297.185;" xml:space="preserve">
<g>
	<path style="fill:#FFFFFF;" d="M147.25,248.593h118v-101h-118V248.593z M238.25,214.593c0,4.418-3.582,8-8,8h-49
		c-4.418,0-8-3.582-8-8v-33c0-4.418,3.582-8,8-8h49c4.418,0,8,3.582,8,8V214.593z"/>
	<path style="fill:#FFFFFF;" d="M32.25,248.593h17v-60c0-4.418,3.915-8,8.333-8h49c4.418,0,7.667,3.582,7.667,8v60h17v-101h-99
		V248.593z"/>
	<polygon style="fill:#C52D2F;" points="98.155,48.593 160.335,131.593 273.343,131.593 212.238,48.593 	"/>
	<polygon style="fill:#C52D2F;" points="23.989,131.593 24.583,131.593 139.583,131.593 140.343,131.593 82.166,53.935 	"/>
	<path d="M295.313,134.448l-72.588-98.599c-1.508-2.048-3.899-3.257-6.442-3.257H82.166c-0.046,0-0.091,0.007-0.137,0.008
		c-0.217,0.004-0.434,0.018-0.649,0.038c-0.074,0.008-0.149,0.013-0.224,0.022c-0.266,0.033-0.531,0.079-0.794,0.141
		c-0.019,0.004-0.038,0.006-0.056,0.011c-0.294,0.07-0.585,0.156-0.871,0.261c-0.01,0.004-0.019,0.008-0.027,0.012
		c-0.257,0.094-0.51,0.204-0.76,0.326c-0.078,0.039-0.154,0.083-0.231,0.124c-0.173,0.093-0.345,0.188-0.513,0.295
		c-0.099,0.061-0.193,0.129-0.29,0.195c-0.081,0.056-0.165,0.105-0.245,0.165c-0.062,0.046-0.116,0.099-0.176,0.146
		c-0.093,0.073-0.184,0.148-0.273,0.227c-0.144,0.125-0.28,0.254-0.413,0.387c-0.069,0.069-0.139,0.138-0.206,0.209
		c-0.16,0.174-0.311,0.354-0.453,0.537c-0.026,0.035-0.058,0.064-0.084,0.1l-0.06,0.08c-0.011,0.015-0.022,0.029-0.033,0.044
		L1.597,134.796c-1.816,2.425-2.107,5.667-0.752,8.377c1.355,2.709,4.125,4.42,7.154,4.42h8.25v109c0,4.418,3.915,8,8.333,8h249
		c4.418,0,7.667-3.582,7.667-8v-109h7.916c0,0,0.014,0,0.02,0c4.419,0,8-3.582,8-8C297.185,137.634,296.481,135.84,295.313,134.448z
		 M98.25,248.593h-33v-52h33V248.593z M131.25,248.593h-17v-60c0-4.418-3.249-8-7.667-8h-49c-4.418,0-8.333,3.582-8.333,8v60h-17
		v-101h99V248.593z M139.583,131.593h-115h-0.594l58.177-77.657l58.177,77.657H139.583z M265.25,248.593h-118v-101h118V248.593z
		 M160.335,131.593l-62.18-83h114.083l61.104,83H160.335z"/>
	<rect x="189.25" y="189.593" style="fill:#C8F1DE;" width="33" height="17"/>
	<path d="M238.25,181.593c0-4.418-3.582-8-8-8h-49c-4.418,0-8,3.582-8,8v33c0,4.418,3.582,8,8,8h49c4.418,0,8-3.582,8-8V181.593z
		 M189.25,189.593h33v17h-33V189.593z"/>
	<rect x="65.25" y="196.593" style="fill:#C8F1DE;" width="33" height="52"/>
</g>
<g>
</g>
<g>
</g>
<g>
</g>
<g>
</g>
<g>
</g>
<g>
</g>
<g>
</g>
<g>
</g>
<g>
</g>
<g>
</g>
<g>
</g>
<g>
</g>
<g>
</g>
<g>
</g>
<g>
</g>
</svg>
