<?xml version='1.0' encoding='iso-8859-1'?>
<!DOCTYPE svg PUBLIC '-//W3C//DTD SVG 1.1//EN' 'http://www.w3.org/Graphics/SVG/1.1/DTD/svg11.dtd'>
<svg version="1.1" xmlns="http://www.w3.org/2000/svg" viewBox="0 0 285.5 285.5" xmlns:xlink="http://www.w3.org/1999/xlink" enable-background="new 0 0 285.5 285.5">
  <g>
    <path d="M186,0H99.5C73.722,0,52.75,20.972,52.75,46.75v192c0,25.778,20.972,46.75,46.75,46.75H186   c25.778,0,46.75-20.972,46.75-46.75v-192C232.75,20.972,211.778,0,186,0z M218.75,238.75c0,18.059-14.691,32.75-32.75,32.75H99.5   c-18.059,0-32.75-14.691-32.75-32.75v-192C66.75,28.691,81.441,14,99.5,14H186c18.059,0,32.75,14.691,32.75,32.75V238.75z"/>
    <path d="m202.417,38.5h-119.334c-3.866,0-7,3.134-7,7v175c0,3.866 3.134,7 7,7h119.333c3.866,0 7-3.134 7-7v-175c0.001-3.866-3.133-7-6.999-7zm-7,175h-105.334v-161h105.333v161z"/>
    <circle cx="142.75" cy="249.5" r="15"/>
    <path d="m113.75,169.344h58c3.866,0 7-3.134 7-7v-36.819c0-2.197-1.031-4.266-2.785-5.589l-29-21.869c-2.495-1.882-5.935-1.882-8.43,0l-29,21.869c-1.754,1.323-2.785,3.392-2.785,5.589v36.819c0,3.866 3.134,7 7,7zm7-40.33l22-16.59 22,16.59v26.33h-15.369v-12.246c0-1.255-1.018-2.273-2.273-2.273h-8.716c-1.255,0-2.273,1.018-2.273,2.273v12.246h-15.369v-26.33z"/>
  </g>
</svg>
