
<svg width="15px" height="14px" viewBox="0 0 15 14" version="1.1" xmlns="http://www.w3.org/2000/svg" xmlns:xlink="http://www.w3.org/1999/xlink">
    <!-- Generator: Sketch 40.1 (33804) - http://www.bohemiancoding.com/sketch -->
    <desc>Created with Sketch.</desc>
    <defs></defs>
    <g id="pulse" stroke="none" stroke-width="1" fill="none" fill-rule="evenodd">
        <g id="Capa_1" fill="#FFFFFF">
            <path d="M9.9898196,0 C8.9253531,0 7.91968125,0.386737675 7.13362649,1.0937945 C6.34757172,0.386737675 5.34186905,0 4.27743337,0 C1.91883767,0 0,1.91920266 0,4.278247 C0,5.76953559 0.80925831,7.54690156 2.27872374,9.28293703 C3.63044581,10.8798788 5.36457956,12.2404262 7.03640579,13.0157199 C7.06722059,13.0300207 7.10043894,13.0371711 7.13362649,13.0371711 C7.16681403,13.0371711 7.20000157,13.0300207 7.23084718,13.0157199 C8.90267341,12.240457 10.6368072,10.8799097 11.9885292,9.28293703 C13.4579947,7.54687074 14.267253,5.76950477 14.267253,4.278247 C14.267253,1.91920266 12.3484153,0 9.9898196,0 L9.9898196,0 Z M4.27743337,0.46230994 C5.29382878,0.46230994 6.25025858,0.857739042 6.97049293,1.5757372 C7.06068785,1.66564107 7.20659593,1.66564107 7.29679086,1.5757372 C8.01699439,0.857739042 8.97342419,0.46230994 9.9898196,0.46230994 C12.0935461,0.46230994 13.805031,2.17412036 13.805031,4.278247 C13.805031,4.79020903 13.6990589,5.34189889 13.4948492,5.91756723 L10.5848534,5.91756723 C10.4765394,5.91756723 10.3827391,5.99280047 10.3592582,6.09857698 L10.0853147,7.33131102 L9.33062937,4.12328071 C9.30619323,4.0194459 9.2139029,3.94581534 9.10725287,3.94507564 L9.1056505,3.94507564 C8.9996784,3.94507564 8.90717237,4.01722681 8.88144201,4.12016782 L8.43228547,5.91756723 L5.65451603,5.91756723 C5.546202,5.91756723 5.45240174,5.99280047 5.42892087,6.09857698 L5.15503891,7.33121856 L4.40038443,4.12328071 C4.37594829,4.0194459 4.28365796,3.94581534 4.17700794,3.94507564 L4.17537475,3.94507564 C4.06940265,3.94507564 3.97692743,4.01719599 3.95119707,4.12016782 L3.50191727,5.91756723 L0.772403808,5.91756723 C0.56819412,5.34189889 0.462222018,4.79017821 0.462222018,4.278247 C0.462222018,2.17412036 2.17370689,0.46230994 4.27743337,0.46230994 L4.27743337,0.46230994 Z M11.6357614,8.98419234 C10.3713993,10.4779466 8.69562876,11.8042213 7.13362649,12.5505129 C5.57162421,11.8042213 3.8958845,10.4779466 2.63149158,8.98419234 C1.88811532,8.10595756 1.32223231,7.22245244 0.955104764,6.37987717 L3.68236875,6.37987717 C3.78840248,6.37987717 3.88084688,6.30769518 3.90657724,6.20478498 L4.1685955,5.15648179 L4.93650034,8.42075981 C4.96109055,8.52524185 5.05427451,8.59896488 5.16144839,8.59896488 L5.16289669,8.59896488 C5.27068686,8.59828683 5.36368593,8.52320769 5.38707437,8.41795513 L5.83992868,6.37987717 L8.61273694,6.37987717 C8.71877068,6.37987717 8.81121508,6.30769518 8.83694544,6.20478498 L9.09887125,5.15660507 L9.86674528,8.42075981 C9.89133549,8.52524185 9.98451945,8.59896488 10.0916933,8.59896488 L10.0931416,8.59896488 C10.2009318,8.59828683 10.2939309,8.52320769 10.3173193,8.41795513 L10.7702353,6.37987717 L13.3121482,6.37987717 C12.9450207,7.22245244 12.3791377,8.10595756 11.6357614,8.98419234 L11.6357614,8.98419234 Z" id="Shape"></path>
        </g>
    </g>
</svg>
