
<svg width="39px" height="29px" viewBox="12 17 39 29" version="1.1" xmlns="http://www.w3.org/2000/svg" xmlns:xlink="http://www.w3.org/1999/xlink">
    <!-- Generator: Sketch 40.2 (33826) - http://www.bohemiancoding.com/sketch -->
    <desc>Created with Sketch.</desc>
    <defs></defs>
    <g id="Capa_1" stroke="none" stroke-width="1" fill="none" fill-rule="evenodd" transform="translate(13.430944, 18.444382)">
        <g id="Group" stroke="#FFFFFF" stroke-width="2">
            <path d="M12.6157815,13.5852267 C11.2940313,12.5793306 9.6465193,11.9754794 7.85389781,11.9754794 C3.51630702,11.9754794 0,15.4721726 0,19.7855685 L0,24.6029813 C0,25.1675686 0.459907447,25.6248394 1.02759003,25.6248394 L9.31559805,25.6248394 L9.31559805,20.6984712 C9.31559805,17.8547268 10.599584,15.3067085 12.6157815,13.5852267 L12.6157815,13.5852267 Z" id="Shape"></path>
            <path d="M7.85389781,10.6616007 C10.8134144,10.6616007 13.2121277,8.27619606 13.2121277,5.33325878 C13.2121277,2.39017899 10.8134144,0.00484563149 7.85389781,0.00484563149 C4.8943812,0.00484563149 2.49566791,2.39017899 2.49566791,5.33325878 C2.49566791,8.27626732 4.8943812,10.6616007 7.85389781,10.6616007 L7.85389781,10.6616007 Z" id="Shape"></path>
            <path d="M18.7504367,13.6519254 C14.8373538,13.6519254 11.664365,16.8071441 11.664365,20.6984712 L11.664365,24.6029813 C11.664365,25.1675686 12.1242725,25.6248394 12.691955,25.6248394 L15.707724,25.6248394 L20.8320589,25.6248394 L20.8320589,21.4364324 C20.8320589,19.0704815 21.8344249,16.9365509 23.4325639,15.4191557 C22.1836909,14.3226178 20.5476443,13.6519254 18.7504367,13.6519254 L18.7504367,13.6519254 Z" id="Shape"></path>
            <path d="M16.1326618,11.6914399 C16.8879477,12.177357 17.7836851,12.4664559 18.7504367,12.4664559 C19.7173315,12.4664559 20.613069,12.1774282 21.3687848,11.6914399 C22.699779,10.8349745 23.5851259,9.35292388 23.5851259,7.65930442 C23.5851259,5.00368458 21.4209525,2.85158287 18.7504367,2.85158287 C16.0804941,2.85158287 13.9163207,5.00368458 13.9163207,7.65930442 C13.9163207,9.35292388 14.8017393,10.8349745 16.1326618,11.6914399 L16.1326618,11.6914399 Z" id="Shape"></path>
            <path d="M29.206631,15.444239 C25.8784288,15.444239 23.1809692,18.1272936 23.1809692,21.4364324 L23.1809692,24.6029813 C23.1809692,25.1675686 23.6408766,25.6248394 24.2085592,25.6248394 L25.8371532,25.6248394 L34.2047744,25.6248394 C34.7725286,25.6248394 35.2324361,25.1675686 35.2324361,24.6029813 L35.2324361,21.4364324 C35.2324361,18.1272936 32.5343315,15.444239 29.206631,15.444239 L29.206631,15.444239 Z" id="Shape"></path>
            <path d="M26.6360078,13.5140387 C27.3419205,14.0813338 28.2283423,14.4354212 29.206631,14.4354212 C30.1854929,14.4354212 31.072058,14.0813338 31.7779708,13.5140387 C32.7098244,12.7647473 33.317636,11.6327222 33.317636,10.3479173 C33.317636,8.08985302 31.477433,6.25934447 29.206631,6.25934447 C26.9363306,6.25934447 25.0956976,8.08985302 25.0956976,10.3479173 C25.0956976,11.6327222 25.7034376,12.7647473 26.6360078,13.5140387 L26.6360078,13.5140387 Z" id="Shape"></path>
        </g>
    </g>
</svg>
