
<svg width="14px" height="14px" viewBox="0 0 14 14" version="1.1" xmlns="http://www.w3.org/2000/svg" xmlns:xlink="http://www.w3.org/1999/xlink">
    <!-- Generator: Sketch 40.1 (33804) - http://www.bohemiancoding.com/sketch -->
    <desc>Created with Sketch.</desc>
    <defs></defs>
    <g id="happiness" stroke="none" stroke-width="1" fill="none" fill-rule="evenodd">
        <g id="Capa_1" fill="#FFFFFF">
            <g id="Group">
                <path d="M6.53264958,0 C2.93055089,0 0,2.93110833 0,6.53389219 C0,10.136676 2.93055089,13.0677844 6.53264958,13.0677844 C10.1347483,13.0677844 13.0652992,10.136676 13.0652992,6.53389219 C13.0652992,2.93110833 10.1347924,0 6.53264958,0 L6.53264958,0 Z M6.53264958,12.3614081 C4.93230537,12.3614081 3.48066922,11.7126015 2.42664727,10.6643391 C2.00572708,10.2457229 1.64841281,9.76326789 1.37019763,9.2330442 C0.946452468,8.42561198 0.706241931,7.50732283 0.706241931,6.53389219 C0.706241931,3.32058654 3.31995504,0.706376268 6.53264958,0.706376268 C8.05649897,0.706376268 9.44532372,1.2947877 10.484647,2.2560775 C11.0235096,2.75442596 11.4684862,3.35290325 11.7893407,4.02184158 C12.1543795,4.78291786 12.3590572,5.63494009 12.3590572,6.53389219 C12.3590572,9.74719783 9.74534412,12.3614081 6.53264958,12.3614081 L6.53264958,12.3614081 Z" id="Shape"></path>
                <ellipse id="Oval" cx="4.39926927" cy="5.07699113" rx="0.706241931" ry="0.706376268"></ellipse>
                <ellipse id="Oval" cx="8.76914122" cy="5.07699113" rx="0.706241931" ry="0.706376268"></ellipse>
                <path d="M6.52015793,10.1539381 C7.88647122,10.1539381 9.1958879,9.45506709 9.94560785,8.29471163 L9.35240877,7.91132591 C8.66395531,8.97685036 7.4046818,9.57148673 6.14373098,9.42597322 C5.16108361,9.31264398 4.25237095,8.7463951 3.71284625,7.91132591 L3.11969131,8.29471163 C3.77252369,9.30522703 4.87276034,9.99041201 6.062778,10.1277139 C6.21554695,10.1453292 6.36809521,10.1539381 6.52015793,10.1539381 L6.52015793,10.1539381 Z" id="Shape"></path>
            </g>
        </g>
    </g>
</svg>
