
<svg width="37px" height="32px" viewBox="9 15 37 32" version="1.1" xmlns="http://www.w3.org/2000/svg" xmlns:xlink="http://www.w3.org/1999/xlink">
    <!-- Generator: Sketch 40.2 (33826) - http://www.bohemiancoding.com/sketch -->
    <desc>Created with Sketch.</desc>
    <defs></defs>
    <g id="users-64px-outline-2_family" stroke="none" stroke-width="1" fill="none" fill-rule="evenodd" transform="translate(10.073208, 17.326541)">
        <g id="Group" stroke="#FFFFFF" stroke-width="2">
            <polyline id="Shape" points="0 8.94273064 16.7886795 0 33.5773589 8.94273064"></polyline>
            <ellipse id="Oval" cx="26.8618871" cy="16.7676199" rx="3.35773589" ry="3.35352399"></ellipse>
            <ellipse id="Oval" cx="6.71547179" cy="16.7676199" rx="3.35773589" ry="3.35352399"></ellipse>
            <path d="M13.4309436,27.9460332 L13.4309436,26.8477541 C13.4309436,26.0540868 13.0140247,25.3241364 12.3301658,24.9200368 C11.2416998,24.2767191 9.3546522,23.4746679 6.71547179,23.4746679 C4.04215439,23.4746679 2.16741852,24.2716888 1.09014492,24.9138886 C0.41188227,25.3185472 0,26.0462619 0,26.8354579 L0,27.9460332 L13.4309436,27.9460332 L13.4309436,27.9460332 Z" id="Shape"></path>
            <path d="M33.5773589,27.9460332 L33.5773589,26.8477541 C33.5773589,26.0540868 33.1604401,25.3241364 32.4765812,24.9200368 C31.3881151,24.2767191 29.5010676,23.4746679 26.8618871,23.4746679 C24.1885698,23.4746679 22.3138339,24.2716888 21.2365603,24.9138886 C20.5582976,25.3185472 20.1464154,26.0462619 20.1464154,26.8354579 L20.1464154,27.9460332 L33.5773589,27.9460332 L33.5773589,27.9460332 Z" id="Shape"></path>
        </g>
    </g>
</svg>
