
<svg width="35px" height="37px" viewBox="14 13 35 37" version="1.1" xmlns="http://www.w3.org/2000/svg" xmlns:xlink="http://www.w3.org/1999/xlink">
    <!-- Generator: Sketch 40.2 (33826) - http://www.bohemiancoding.com/sketch -->
    <desc>Created with Sketch.</desc>
    <defs></defs>
    <g id="business-64px-outline_payment" stroke="none" stroke-width="1" fill="none" fill-rule="evenodd" transform="translate(15.669434, 14.531937)">
        <g id="Group" stroke="#FFFFFF" stroke-width="2">
            <polyline id="Shape" points="18.1877361 22.3568266 0 22.3568266 0 7.82488931 31.3388683 7.82488931 31.3388683 22.3568266 27.9811324 22.3568266"></polyline>
            <path d="M6.71547179,7.82488931 L6.71547179,4.47136532 C6.71547179,3.24173986 7.72279256,2.23568266 8.95396238,2.23568266 L8.95396238,2.23568266 C10.1851322,2.23568266 11.192453,3.24173986 11.192453,4.47136532 L11.192453,7.82488931" id="Shape"></path>
            <path d="M11.192453,7.82488931 L11.192453,3.35352399 C11.192453,2.12389853 12.1997737,1.11784133 13.4309436,1.11784133 L13.4309436,1.11784133 C14.6621134,1.11784133 15.6694342,2.12389853 15.6694342,3.35352399 L15.6694342,7.82488931" id="Shape"></path>
            <path d="M15.6694342,7.82488931 L15.6694342,2.23568266 C15.6694342,1.0060572 16.6767549,0 17.9079248,0 L17.9079248,0 C19.1390946,0 20.1464154,1.0060572 20.1464154,2.23568266 L20.1464154,7.82488931" id="Shape"></path>
            <path d="M20.1464154,7.82488931 L20.1464154,3.35352399 C20.1464154,2.12389853 21.1537361,1.11784133 22.384906,1.11784133 L22.384906,1.11784133 C23.6160758,1.11784133 24.6233966,2.12389853 24.6233966,3.35352399 L24.6233966,7.82488931" id="Shape"></path>
            <ellipse id="Oval" cx="15.6694342" cy="15.090858" rx="2.79811324" ry="2.79460332"></ellipse>
            <path d="M8.95396238,12 L4.47698119,12" id="Shape"></path>
            <path d="M6.71547179,22.3568266 L6.71547179,22.9157473 C6.71547179,28.7844142 11.4722643,33.5352399 17.3483021,33.5352399 L17.3483021,33.5352399 C23.2243399,33.5352399 27.9811324,28.7844142 27.9811324,22.9157473 L27.9811324,22.3568266 L27.9811324,12.2962546 C25.4628305,12.2962546 23.5041513,14.252477 23.5041513,16.7676199 L23.5041513,20.1211439 C20.0344908,20.1211439 16.7886795,22.5245028 16.7886795,25.7103506" id="Shape"></path>
        </g>
    </g>
</svg>
