
<svg width="18px" height="14px" viewBox="0 0 18 14" version="1.1" xmlns="http://www.w3.org/2000/svg" xmlns:xlink="http://www.w3.org/1999/xlink">
    <!-- Generator: Sketch 40.1 (33804) - http://www.bohemiancoding.com/sketch -->
    <desc>Created with Sketch.</desc>
    <defs></defs>
    <g id="happiness" stroke="none" stroke-width="1" fill="none" fill-rule="evenodd">
        <g id="houses" fill="#FFFFFF">
            <path d="M17.6126437,4.64205847 L11.6401279,0.137372956 C11.4810478,0.0174026992 11.2619302,0.0174026992 11.1028501,0.137372956 L10.1210274,0.877911992 L9.13920467,0.137372956 C8.98012453,0.0174026992 8.76100694,0.0174026992 8.60192681,0.137372956 L7.64457798,0.859425608 L6.68722914,0.137372956 C6.52814901,0.0174026992 6.30903142,0.0174026992 6.14995129,0.137372956 L0.177435534,4.64205847 C0.0657097828,4.72639462 0,4.85834916 0,4.9983357 L0,12.5826615 C0,12.8291041 0.199742443,13.0288846 0.446138195,13.0288846 L2.89811372,13.0288846 L5.3989095,13.0288846 L12.3912334,13.0288846 L14.843209,13.0288846 L17.3440047,13.0288846 C17.5904005,13.0288846 17.7901429,12.8291041 17.7901429,12.5826615 L17.7901429,4.9983357 C17.7901429,4.85834916 17.7244332,4.72639462 17.6126437,4.64205847 L17.6126437,4.64205847 Z M16.8978666,12.1364385 L15.2893472,12.1364385 L15.2893472,4.9983357 C15.2893472,4.85828541 15.2236374,4.72639462 15.1118479,4.64205847 L10.8620629,1.4367745 L11.371489,1.0525127 L16.8978666,5.22074602 L16.8978666,12.1364385 L16.8978666,12.1364385 Z M12.8373716,12.1364385 L12.8373716,4.9983357 C12.8373716,4.85828541 12.7716619,4.72639462 12.6598724,4.64205847 L8.38561352,1.41835186 L8.87062947,1.05257645 L14.3970708,5.22080977 L14.3970708,12.1365022 L12.8373716,12.1365022 L12.8373716,12.1364385 Z M7.14930085,12.1363747 L5.8450477,12.1363747 L5.68800706,12.1363747 L5.68800706,8.90062009 L7.14930085,8.90062009 L7.14930085,12.1363747 L7.14930085,12.1363747 Z M8.04157724,12.1363747 L8.04157724,8.45439703 C8.04157724,8.20795441 7.84183479,8.00817397 7.59543904,8.00817397 L5.24186886,8.00817397 C4.99547311,8.00817397 4.79573066,8.20795441 4.79573066,8.45439703 L4.79573066,12.1363747 L3.34425191,12.1363747 L0.892276391,12.1363747 L0.892276391,5.22068228 L6.41865395,1.05244895 L11.9450952,5.22068228 L11.9450952,12.1363747 L8.04157724,12.1363747 L8.04157724,12.1363747 Z" id="Shape"></path>
        </g>
    </g>
</svg>
