
<svg width="13px" height="15px" viewBox="0 -1 13 15" version="1.1" xmlns="http://www.w3.org/2000/svg" xmlns:xlink="http://www.w3.org/1999/xlink">
    <!-- Generator: Sketch 40.1 (33804) - http://www.bohemiancoding.com/sketch -->
    <desc>Created with Sketch.</desc>
    <defs></defs>
    <g id="Group" stroke="none" stroke-width="1" fill="none" fill-rule="evenodd">
        <path d="M2.30461705,0.378084905 C2.39120351,0.291481977 2.39120351,0.151499751 2.30461705,0.0648968231 C2.21803059,-0.0217061047 2.07807499,-0.0217061047 1.99148853,0.0648968231 C-0.512432387,2.56929402 -0.512432387,6.64428293 1.99148853,9.14868013 C2.03489248,9.19187085 2.09158336,9.21357695 2.14805279,9.21357695 C2.20452222,9.21357695 2.26143454,9.19187085 2.30461705,9.14868013 C2.39120351,9.0620772 2.39120351,8.92209498 2.30461705,8.83549205 C-0.0265738489,6.50363623 -0.0265738489,2.70971923 2.30461705,0.378084905 L2.30461705,0.378084905 Z" id="Shape" fill="#FFFFFF"></path>
        <path d="M11.0735443,0.0648968231 C10.9869578,-0.0217061047 10.8470022,-0.0217061047 10.7604158,0.0648968231 C10.6738293,0.151499751 10.6738293,0.291481977 10.7604158,0.378084905 C11.8880328,1.50569489 12.508975,3.00740295 12.508975,4.60678848 C12.508975,6.206174 11.8880328,7.70788206 10.7604158,8.83549205 C10.6738293,8.92209498 10.6738293,9.0620772 10.7604158,9.14868013 C10.8035983,9.19187085 10.8602892,9.21357695 10.91698,9.21357695 C10.9736709,9.21357695 11.0303618,9.19187085 11.0735443,9.14868013 C12.2848689,7.9373466 12.9516511,6.32445012 12.9516511,4.60678848 C12.9516511,2.88912683 12.2848689,1.27623036 11.0735443,0.0648968231 L11.0735443,0.0648968231 Z" id="Shape" fill="#FFFFFF"></path>
        <path d="M3.24444551,1.31764915 C3.33103196,1.23104622 3.33103196,1.091064 3.24444551,1.00446107 C3.15785905,0.91785814 3.01790344,0.91785814 2.93131699,1.00446107 C0.945364676,2.99079113 0.945364676,6.22278582 2.93131699,8.20889439 C2.97449949,8.25208511 3.03119037,8.27379122 3.08788125,8.27379122 C3.14457212,8.27379122 3.201263,8.25208511 3.24444551,8.20889439 C3.33103196,8.12229147 3.33103196,7.98230924 3.24444551,7.89570631 C1.43122321,6.08213912 1.43122321,3.13143783 3.24444551,1.31764915 L3.24444551,1.31764915 Z" id="Shape" fill="#FFFFFF"></path>
        <path d="M10.1341587,1.00446107 C10.0475723,0.91785814 9.90761667,0.91785814 9.82103022,1.00446107 C9.73444376,1.091064 9.73444376,1.23104622 9.82103022,1.31764915 C11.6342525,3.13121634 11.6342525,6.08213912 9.82103022,7.89570631 C9.73444376,7.98230924 9.73444376,8.12229147 9.82103022,8.20889439 C9.86421272,8.25208511 9.9209036,8.27379122 9.97759448,8.27379122 C10.0342854,8.27379122 10.0909762,8.25208511 10.1341587,8.20889439 C12.120111,6.22278582 12.120111,2.99079113 10.1341587,1.00446107 L10.1341587,1.00446107 Z" id="Shape" fill="#FFFFFF"></path>
        <path d="M4.18383106,1.9442468 C4.09724461,1.85764387 3.957289,1.85764387 3.87070254,1.9442468 C3.16073788,2.65434651 2.7696594,3.59989101 2.7696594,4.60678848 C2.7696594,5.61368594 3.16073788,6.55900895 3.87070254,7.26933015 C3.91388505,7.31252087 3.97057593,7.33422697 4.0272668,7.33422697 C4.08395768,7.33422697 4.14064856,7.31252087 4.18383106,7.26933015 C4.27041752,7.18272722 4.27041752,7.042745 4.18383106,6.95614207 C2.88857738,5.66064201 2.88857738,3.55315644 4.18383106,2.25765637 C4.27019607,2.17105345 4.27019607,2.03084973 4.18383106,1.9442468 L4.18383106,1.9442468 Z" id="Shape" fill="#FFFFFF"></path>
        <path d="M9.19477318,1.9442468 C9.10818672,1.85764387 8.96823112,1.85764387 8.88164466,1.9442468 C8.7950582,2.03084973 8.7950582,2.17083196 8.88164466,2.25743488 C10.1768983,3.55293495 10.1768983,5.66042052 8.88164466,6.95592058 C8.7950582,7.04252351 8.7950582,7.18250573 8.88164466,7.26910866 C8.92482716,7.31229938 8.98151804,7.33400548 9.03820892,7.33400548 C9.09489979,7.33400548 9.15159067,7.31229938 9.19477318,7.26910866 C9.90473784,6.55900895 10.2958163,5.61346445 10.2958163,4.60656699 C10.2958163,3.59966952 9.90473784,2.65434651 9.19477318,1.9442468 L9.19477318,1.9442468 Z" id="Shape" fill="#FFFFFF"></path>
        <path d="M6.53251641,3.10087209 C5.67794572,3.10087209 4.98237522,3.7965749 4.98237522,4.65130814 C4.98237522,5.43073449 5.56124223,6.07593738 6.31106767,6.18402492 L6.31106767,12.8464701 C6.31106767,12.9689545 6.41005526,13.067961 6.53251641,13.067961 C6.65497757,13.067961 6.75396515,12.9689545 6.75396515,12.8464701 L6.75396515,6.18402492 C7.50379059,6.07593738 8.0826576,5.43073449 8.0826576,4.65130814 C8.0826576,3.7965749 7.38730855,3.10087209 6.53251641,3.10087209 L6.53251641,3.10087209 Z M6.53251641,5.75876246 C5.92198223,5.75876246 5.42527271,5.26195845 5.42527271,4.65130814 C5.42527271,4.04065783 5.92198223,3.54385382 6.53251641,3.54385382 C7.14305059,3.54385382 7.63976012,4.04065783 7.63976012,4.65130814 C7.63976012,5.26195845 7.14305059,5.75876246 6.53251641,5.75876246 L6.53251641,5.75876246 Z" id="Shape" fill="#FFFFFF"></path>
    </g>
</svg>
